<svg xmlns:xlink="http://www.w3.org/1999/xlink" xmlns="http://www.w3.org/2000/svg" class="icon-svg" role="img" width="125"  height="42" ><defs><symbol id="icon-logo" viewBox="0 0 163.77 54.6"><title>Enable Injections</title><g id="Layer_2" data-name="Layer 2"><g id="Type"><path class="cls-1" d="M62.88,35.12c.18-1,.3-1.69.36-2.45h1.91A13.85,13.85,0,0,1,64.81,35h.06a6,6,0,0,1,4.9-2.69c2.78,0,4.84,1.57,4.84,4.47A15.43,15.43,0,0,1,74.16,40l-1.73,8.13h-2l1.75-8.49a11.53,11.53,0,0,0,.34-2.69,2.71,2.71,0,0,0-3-3c-3.32,0-5.11,3.29-5.83,6.83l-1.52,7.31h-2Z"></path><path class="cls-1" d="M77,49.89c-.46,2.2-1.21,4.71-4.24,4.71a10.32,10.32,0,0,1-1.93-.27l.51-1.72a2.58,2.58,0,0,0,1.06.18c1.63,0,2.36-1.63,2.6-2.84l3.54-17.28h2Zm4.5-21.32H79.23L79.78,26h2.27Z"></path><path class="cls-1" d="M82.76,40.92a8.22,8.22,0,0,0-.09,1.24,4.37,4.37,0,0,0,4.69,4.65,10.79,10.79,0,0,0,4.5-1l-.15,1.84a11.25,11.25,0,0,1-4.6.82c-3.59,0-6.35-2.14-6.35-6.28,0-5.17,3-9.85,8-9.85,3.62,0,5.44,2.24,5.44,5.74,0,.94-.12,1.9-.21,2.87Zm9.43-1.63c0-.43.09-.82.09-1.18,0-2.51-1-4.17-3.53-4.17-3,0-5.14,2.54-5.66,5.35Z"></path><path class="cls-1" d="M107.35,34.64a10.31,10.31,0,0,0-3.57-.7c-4.39,0-6.74,3.2-6.74,7.31,0,3.17,2.11,5.56,5,5.56a10.42,10.42,0,0,0,3.26-.73l-.24,1.9a11.43,11.43,0,0,1-3.51.46c-4.44,0-6.59-3.72-6.59-7,0-5.43,3.08-9.09,9-9.09a14,14,0,0,1,3.9.6Z"></path><path class="cls-1" d="M113.21,29.23l2.18-.75-.94,4.19h4l-.39,1.63h-4l-1.64,7.61a15.43,15.43,0,0,0-.45,3,1.64,1.64,0,0,0,1.75,1.88,3.26,3.26,0,0,0,1.64-.42L115.23,48a4.23,4.23,0,0,1-1.93.42c-2.15,0-3.36-1.21-3.36-2.87a26.42,26.42,0,0,1,.7-4.44l1.48-6.83H109l.42-1.63h3Z"></path><path class="cls-1" d="M120.26,32.67h2L119,48.08h-2Zm3-4.1H121l.54-2.54h2.27Z"></path><path class="cls-1" d="M131.13,32.31c3.93,0,6.14,2.63,6.14,6.61,0,5.14-3.24,9.52-8.56,9.52-3.81,0-6.17-2.87-6.17-6.71,0-5.16,3.36-9.42,8.59-9.42M129,46.81c4,0,6.23-4.23,6.23-7.85,0-2.9-1.3-5-4.29-5-4.27,0-6.26,4.17-6.26,8.09,0,2.66,1.63,4.78,4.32,4.78"></path><path class="cls-1" d="M139.82,35.12c.18-1,.3-1.69.36-2.45h1.91a13.85,13.85,0,0,1-.34,2.33h.07a6,6,0,0,1,4.89-2.69c2.79,0,4.84,1.57,4.84,4.47A15.43,15.43,0,0,1,151.1,40l-1.73,8.13h-2l1.75-8.49a11,11,0,0,0,.34-2.69,2.71,2.71,0,0,0-3-3c-3.32,0-5.11,3.29-5.83,6.83l-1.52,7.31h-2Z"></path><path class="cls-1" d="M152.16,45.69a7.18,7.18,0,0,0,3.66,1.12c1.84,0,4.35-.7,4.35-3.09,0-3.34-6.08-3.19-6.08-7.12,0-3.05,3.24-4.29,5.72-4.29a10.26,10.26,0,0,1,4,.76l-.64,1.78a7.13,7.13,0,0,0-3.42-.91c-1.51,0-3.62.49-3.62,2.63,0,2.62,6.17,3,6.17,7,0,3.5-3.21,4.83-6.2,4.83a11.27,11.27,0,0,1-4.48-.85Z"></path><path class="cls-1" d="M58.43,32.67h2L57.16,48.08h-2Zm3-4.1H59.16L59.7,26H62Z"></path><path class="cls-1" d="M16.1,28.5a26.9,26.9,0,0,0-.18,3.14c0,12.37,12,15.94,22.38,13,7.37-2.08,10.36-9.05,10.89-16.17Z"></path><path class="cls-1" d="M8.32,31.64C8.32,19.71,13.74,7.2,24,2.07A24.59,24.59,0,0,0,20.84,51C13,48.13,8.32,41.17,8.32,31.64"></path><path class="cls-1" d="M17.43,21.77H44.61c0-.24,0-.48.07-.72.08-.79.16-1.54.16-2.24,0-5.67-1.81-12.43-10.43-12.43-8.95,0-15.19,7.6-17,15.39"></path><path class="cls-1" d="M66.68,13.71a9.05,9.05,0,0,0,.09-1.19,3,3,0,0,0-3.32-3.17c-2.37,0-4.19,2.06-4.8,4.36ZM67,22.79a19.52,19.52,0,0,1-4.64.64c-3.81,0-7.22-1.54-7.22-7.07,0-4.34,3-9.35,8.57-9.35,3.79,0,5.91,2.28,5.91,6a16.22,16.22,0,0,1-.28,2.86h-11a5.41,5.41,0,0,0-.09,1c0,3.29,2,4.25,4.83,4.25a11.9,11.9,0,0,0,4.43-1Z"></path><path class="cls-1" d="M72.18,9.78c.12-.65.31-1.48.43-2.4h2.71l-.49,2.49h.06A6,6,0,0,1,80.24,7c3,0,5.23,1.6,5.23,4.92a15.24,15.24,0,0,1-.37,2.86l-1.72,8.27h-2.9l1.94-9.38a10.33,10.33,0,0,0,.16-1.47,2.71,2.71,0,0,0-2.86-2.86c-3.57,0-5.32,3.87-5.72,5.81l-1.66,7.9H69.45Z"></path><path class="cls-1" d="M94.05,15.53c-2.19,0-5.48.58-5.48,3.44,0,1.39,1.2,2.12,2.59,2.12,2.92,0,4.76-2.92,5.1-5.56ZM89.16,7.81A16.11,16.11,0,0,1,93.53,7c3.16,0,6.21,1.23,6.21,5a14.05,14.05,0,0,1-.28,2.46c-.58,2.92-1.23,5.84-1.63,8.61H95.15l.53-2.61h-.06a5.76,5.76,0,0,1-5.11,3c-2.64,0-5-1.38-5-4.33,0-4.46,4-5.72,9.29-5.72.61,0,1.38.06,2.09.09a5.21,5.21,0,0,0,.15-1c0-2.24-1.48-3.1-3.6-3.1a9.85,9.85,0,0,0-4.79,1.32Z"></path><path class="cls-1" d="M108.59,21.09c3.29,0,5.23-4,5.23-7.87,0-2.64-1.5-3.87-3.5-3.87-3.39,0-5.63,3.75-5.63,7.62a3.8,3.8,0,0,0,3.9,4.12M105.3,0h2.89l-1.93,9.07h.06a6,6,0,0,1,5-2.06c3.54,0,5.6,2.58,5.6,6,0,5.75-2.68,10.45-7.91,10.45-3.35,0-4.45-1.29-5.28-3h-.07l-.52,2.61h-2.71Z"></path><polygon class="cls-1" points="121.82 0 116.93 23.06 119.82 23.06 124.71 0 121.82 0"></polygon><path class="cls-1" d="M134.7,13.71a7.72,7.72,0,0,0,.1-1.19,3,3,0,0,0-3.32-3.17c-2.37,0-4.19,2.06-4.8,4.36Zm.37,9.08a19.52,19.52,0,0,1-4.64.64c-3.81,0-7.23-1.54-7.23-7.07,0-4.34,3-9.35,8.58-9.35,3.79,0,5.91,2.28,5.91,6a17.22,17.22,0,0,1-.28,2.86h-11a5.41,5.41,0,0,0-.09,1c0,3.29,2,4.25,4.83,4.25a11.9,11.9,0,0,0,4.43-1Z"></path></g></g></symbol></defs>
	<use xlink:href="#icon-logo" fill="#ADADAD"></use>
</svg>